<svg width="14" height="18" viewBox="0 0 14 18" fill="none" xmlns="http://www.w3.org/2000/svg">
<path d="M1.0211 11.9141L1.01835 11.9179L1.01568 11.9216C0.866914 12.1323 0.533678 12.1942 0.273085 12.0101C0.064478 11.8628 0.00177599 11.5344 0.179421 11.2749C0.444475 10.937 0.636974 10.5419 0.763411 10.1557C0.895042 9.75361 0.956267 9.29673 0.953893 8.84863C0.951519 8.40054 0.885456 7.94434 0.749572 7.5437C0.61905 7.15887 0.422375 6.76588 0.153756 6.4308C-0.0266292 6.1732 0.03259 5.84418 0.239624 5.6946C0.498251 5.50773 0.832124 5.56608 0.983114 5.77515L0.985821 5.7789L0.988616 5.78258C1.32295 6.22355 1.59717 6.7135 1.76104 7.19418C1.93353 7.75965 2.0434 8.30664 2.04624 8.84279C2.04923 9.407 1.99531 9.94101 1.7883 10.4667C1.56285 11.0392 1.34453 11.478 1.0211 11.9141Z" fill="white"/>
<path d="M3.43851 12.9613L3.44504 12.952L3.45104 12.9424C4.19211 11.7549 4.61958 10.3219 4.61167 8.82905C4.60376 7.3366 4.16136 5.90862 3.40808 4.72924C3.24485 4.47031 3.31818 4.16416 3.59335 3.96535C3.77815 3.83182 4.12509 3.87909 4.33093 4.155C5.18139 5.50467 5.69508 7.13621 5.70401 8.82321C5.71326 10.5678 5.21728 12.1464 4.38039 13.506C4.18679 13.7725 3.89042 13.8472 3.63486 13.6961C3.3578 13.4931 3.30716 13.1473 3.43851 12.9613Z" fill="white"/>
<path d="M7.7768 2.38088L7.78411 2.3953L7.79256 2.40908C8.94496 4.28835 9.58534 6.45604 9.59777 8.80237C9.6102 11.1476 8.9934 13.3211 7.86197 15.212C7.68851 15.491 7.39567 15.5696 7.09879 15.4314C6.8286 15.2553 6.75602 14.9634 6.89716 14.6686C7.8594 12.9595 8.45775 10.9454 8.44643 8.80853C8.43516 6.68121 7.87905 4.67038 6.83309 2.96113C6.69157 2.66928 6.76166 2.37861 7.02866 2.20046C7.35078 2.04654 7.66458 2.15934 7.7768 2.38088Z" fill="white"/>
<path d="M11.1892 0.59231L11.1942 0.60216L11.1997 0.611719C12.5962 3.02622 13.4166 5.78673 13.4325 8.78185C13.4484 11.7739 12.6589 14.5404 11.2906 16.9679C11.1169 17.2437 10.8254 17.3209 10.5299 17.1834C10.2606 17.0078 10.1876 16.7172 10.327 16.4234C11.6451 14.1734 12.3549 11.5666 12.3402 8.78769C12.3254 6.0016 11.5255 3.405 10.2478 1.17725C10.0877 0.852048 10.2005 0.533536 10.424 0.420273C10.752 0.254024 11.075 0.366863 11.1892 0.59231Z" fill="white"/>
</svg>
