<svg width="18" height="16" viewBox="0 0 18 16" fill="none" xmlns="http://www.w3.org/2000/svg">
<path fill-rule="evenodd" clip-rule="evenodd" d="M9.00079 11.0351C8.64888 11.0351 8.36328 10.7624 8.36328 10.4263V0.650874C8.36328 0.314771 8.64888 0.0419922 9.00079 0.0419922C9.35269 0.0419922 9.63829 0.314771 9.63829 0.650874V10.4263C9.63829 10.7624 9.35269 11.0351 9.00079 11.0351Z" fill="#FAFCFE"/>
<path fill-rule="evenodd" clip-rule="evenodd" d="M9.00085 11.0351C8.8317 11.0351 8.6685 10.971 8.5495 10.8557L6.07088 8.47947C5.82267 8.24079 5.82352 7.85516 6.07258 7.6181C6.32248 7.38105 6.72538 7.38105 6.97358 7.61973L9.00085 9.56409L11.0281 7.61973C11.2763 7.38105 11.6792 7.38105 11.9291 7.6181C12.1782 7.85516 12.179 8.24079 11.9308 8.47947L9.45221 10.8557C9.33321 10.971 9.17001 11.0351 9.00085 11.0351Z" fill="#FAFCFE"/>
<mask id="mask0_511_10220" style="mask-type:luminance" maskUnits="userSpaceOnUse" x="0" y="3" width="18" height="13">
<path fill-rule="evenodd" clip-rule="evenodd" d="M0.5 3.88403H17.5V15.042H0.5V3.88403Z" fill="white"/>
</mask>
<g mask="url(#mask0_511_10220)">
<path fill-rule="evenodd" clip-rule="evenodd" d="M13.7389 15.042H4.26979C2.19152 15.042 0.5 13.4272 0.5 11.4415V7.47562C0.5 5.49473 2.18727 3.88403 4.26214 3.88403H5.062C5.4139 3.88403 5.6995 4.15681 5.6995 4.49291C5.6995 4.82902 5.4139 5.1018 5.062 5.1018H4.26214C2.89022 5.1018 1.77501 6.16612 1.77501 7.47562V11.4415C1.77501 12.7558 2.89362 13.8242 4.26979 13.8242H13.7389C15.1091 13.8242 16.2252 12.7583 16.2252 11.4496V7.48455C16.2252 6.17018 15.1057 5.1018 13.7312 5.1018H12.939C12.5871 5.1018 12.3015 4.82902 12.3015 4.49291C12.3015 4.15681 12.5871 3.88403 12.939 3.88403H13.7312C15.8095 3.88403 17.5002 5.4996 17.5002 7.48455V11.4496C17.5002 13.4305 15.8121 15.042 13.7389 15.042Z" fill="#FAFCFE"/>
</g>
</svg>
