<svg width="14" height="15" viewBox="0 0 14 15" fill="none" xmlns="http://www.w3.org/2000/svg">
<mask id="mask0_511_10230" style="mask-type:luminance" maskUnits="userSpaceOnUse" x="0" y="0" width="14" height="15">
<path fill-rule="evenodd" clip-rule="evenodd" d="M0 0.0419922H14V14.042H0V0.0419922Z" fill="white"/>
</mask>
<g mask="url(#mask0_511_10230)">
<path fill-rule="evenodd" clip-rule="evenodd" d="M6.32193 8.52671L8.9476 12.7865C9.06248 12.9732 9.24198 12.971 9.31449 12.961C9.38701 12.9509 9.56148 12.9064 9.62466 12.6946L12.908 1.60533C12.9654 1.40932 12.8599 1.27577 12.8125 1.22838C12.7666 1.181 12.6352 1.07976 12.4449 1.13361L1.34773 4.38321C1.13736 4.44496 1.0914 4.62158 1.08135 4.6941C1.0713 4.76805 1.06843 4.95114 1.25439 5.06817L5.56302 7.76277L9.36978 3.9158C9.57871 3.70472 9.91975 3.70256 10.1316 3.9115C10.3434 4.12043 10.3448 4.46219 10.1359 4.67328L6.32193 8.52671ZM9.25838 14.0423C8.75867 14.0423 8.30059 13.7881 8.03063 13.3516L5.247 8.83474L0.683483 5.98074C0.191663 5.67273 -0.0653762 5.12419 0.0143202 4.54765C0.0932986 3.9711 0.488909 3.51303 1.04463 3.35005L12.1418 0.100444C12.6523 -0.0488972 13.1994 0.0925459 13.5756 0.467334C13.9519 0.845713 14.0919 1.39856 13.9396 1.9112L10.6563 12.9998C10.4919 13.5576 10.0324 13.9518 9.45727 14.0286C9.38977 14.0373 9.32444 14.0423 9.25838 14.0423Z" fill="#FAFCFE"/>
</g>
</svg>
