<svg width="14" height="14" viewBox="0 0 14 14" fill="none" xmlns="http://www.w3.org/2000/svg">
<path fill-rule="evenodd" clip-rule="evenodd" d="M13.4914 8.78573H10.7455C9.45868 8.78573 8.41132 7.73951 8.41064 6.45395C8.41064 5.16703 9.458 4.12013 10.7455 4.11945H13.4914C13.7722 4.11945 14.0002 4.34728 14.0002 4.62798C14.0002 4.90869 13.7722 5.13651 13.4914 5.13651H10.7455C10.019 5.13719 9.42816 5.72777 9.42816 6.45327C9.42816 7.17809 10.0197 7.76867 10.7455 7.76867H13.4914C13.7722 7.76867 14.0002 7.99649 14.0002 8.2772C14.0002 8.55791 13.7722 8.78573 13.4914 8.78573Z" fill="#FAFCFE"/>
<path fill-rule="evenodd" clip-rule="evenodd" d="M11.0554 6.92021H10.8437C10.5629 6.92021 10.335 6.69229 10.335 6.41146C10.335 6.13062 10.5629 5.9027 10.8437 5.9027H11.0554C11.3362 5.9027 11.5641 6.13062 11.5641 6.41146C11.5641 6.69229 11.3362 6.92021 11.0554 6.92021Z" fill="#FAFCFE"/>
<mask id="mask0_511_10239" style="mask-type:luminance" maskUnits="userSpaceOnUse" x="0" y="0" width="14" height="14">
<path fill-rule="evenodd" clip-rule="evenodd" d="M0 0.0419922H14V13.042H0V0.0419922Z" fill="white"/>
</mask>
<g mask="url(#mask0_511_10239)">
<path fill-rule="evenodd" clip-rule="evenodd" d="M4.06778 1.05906C2.38549 1.05906 1.0166 2.42734 1.0166 4.10888V8.97518C1.0166 10.6567 2.38549 12.025 4.06778 12.025H9.93135C11.6136 12.025 12.9819 10.6567 12.9819 8.97518V4.10888C12.9819 2.42734 11.6136 1.05906 9.93135 1.05906H4.06778ZM9.93178 13.0421H4.0682C1.82493 13.0421 -0.000488281 11.2175 -0.000488281 8.97517V4.10888C-0.000488281 1.86592 1.82493 0.0419922 4.0682 0.0419922H9.93178C12.175 0.0419922 13.9998 1.86592 13.9998 4.10888V8.97517C13.9998 11.2175 12.175 13.0421 9.93178 13.0421Z" fill="#FAFCFE"/>
</g>
<path fill-rule="evenodd" clip-rule="evenodd" d="M7.24826 4.13651H3.5859C3.30507 4.13651 3.07715 3.90858 3.07715 3.62775C3.07715 3.34692 3.30507 3.119 3.5859 3.119H7.24826C7.5291 3.119 7.75702 3.34692 7.75702 3.62775C7.75702 3.90858 7.5291 4.13651 7.24826 4.13651Z" fill="#FAFCFE"/>
</svg>
