<svg width="25" height="20" viewBox="0 0 25 20" fill="none" xmlns="http://www.w3.org/2000/svg">
<path fill-rule="evenodd" clip-rule="evenodd" d="M0.0463867 3.15128C0.0463867 1.41087 1.43421 0 3.14617 0H21.7449C23.4569 0 24.8447 1.41088 24.8447 3.15128V16.1492C24.8447 17.8896 23.4569 19.3005 21.7449 19.3005H3.14617C1.43421 19.3005 0.0463867 17.8896 0.0463867 16.1492V3.15128ZM17.007 0.608523H21.7449C23.1263 0.608523 24.2461 1.74695 24.2461 3.15128V5.63292H17.007V0.608523ZM16.4084 0.608523H3.14617C1.76479 0.608523 0.644966 1.74695 0.644966 3.15128V5.6329H7.02091C8.04218 5.6329 8.87009 6.47456 8.87009 7.5128V18.692H16.4084V0.608523ZM17.007 18.692H21.7449C23.1263 18.692 24.2461 17.5535 24.2461 16.1492V15.543H17.007V18.692ZM24.2461 14.9345V10.8922H17.007V14.9345H24.2461ZM24.2461 10.2837V6.24144H17.007V10.2837H24.2461ZM8.27151 18.692V15.543H0.644966V16.1492C0.644966 17.5535 1.7648 18.692 3.14617 18.692H8.27151ZM0.644966 14.9345H8.27151V10.8922H0.644966V14.9345ZM0.644966 10.2837H8.27151V7.5128C8.27151 6.81063 7.7116 6.24142 7.02091 6.24142H0.644966V10.2837Z" fill="white"/>
<path d="M16.4084 0.608523H3.14617C1.76479 0.608523 0.644966 1.74695 0.644966 3.15128V5.6329H7.02091C8.04218 5.6329 8.87009 6.47456 8.87009 7.5128V18.692H16.4084V0.608523Z" fill="white" fill-opacity="0.26"/>
<path d="M8.27151 10.2837H0.644966V6.24142H7.02091C7.7116 6.24142 8.27151 6.81063 8.27151 7.5128V10.2837Z" fill="white" fill-opacity="0.26"/>
<path d="M8.27151 14.9345H0.644966V10.8922H8.27151V14.9345Z" fill="white" fill-opacity="0.26"/>
<path d="M8.27151 15.543V18.692H3.14617C1.7648 18.692 0.644966 17.5535 0.644966 16.1492V15.543H8.27151Z" fill="white" fill-opacity="0.26"/>
<path d="M21.7449 0.608523H17.007V5.63292H24.2461V3.15128C24.2461 1.74695 23.1263 0.608523 21.7449 0.608523Z" fill="white" fill-opacity="0.26"/>
<path d="M24.2461 10.2837V6.24144H17.007V10.2837H24.2461Z" fill="white" fill-opacity="0.26"/>
<path d="M24.2461 14.9345V10.8922H17.007V14.9345H24.2461Z" fill="white" fill-opacity="0.26"/>
<path d="M17.007 18.692H21.7449C23.1263 18.692 24.2461 17.5535 24.2461 16.1492V15.543H17.007V18.692Z" fill="white" fill-opacity="0.26"/>
</svg>
